HIERARCHY
ROOT hip
{
	OFFSET 0.000000 0.000000 0.000000 
	CHANNELS 6 Xposition Yposition Zposition Xrotation Zrotation Yrotation
	JOINT abdomen
	{
		OFFSET 0.000000 3.402643 0.000000 
		CHANNELS 3 Xrotation Zrotation Yrotation
		JOINT chest
		{
			OFFSET 0.000000 8.438565 -0.680529 
			CHANNELS 3 Xrotation Zrotation Yrotation
			JOINT neck
			{
				OFFSET 0.000000 10.207942 -0.272212 
				CHANNELS 3 Xrotation Zrotation Yrotation
				JOINT head
				{
					OFFSET 0.000000 3.130431 0.000000 
					CHANNELS 3 Xrotation Zrotation Yrotation
					End Site
					{
						OFFSET 0.000000 3.130435 0.000000 
					}
				}
			}
			JOINT lCollar
			{
				OFFSET 3.470700 6.669187 -0.816635 
				CHANNELS 3 Yrotation Zrotation Xrotation
				JOINT lShldr
				{
					OFFSET 3.198488 0.000000 0.000000 
					CHANNELS 3 Zrotation Yrotation Xrotation
					JOINT lForeArm
					{
						OFFSET 10.139888 0.000000 0.000000 
						CHANNELS 3 Yrotation Zrotation Xrotation
						JOINT lHand
						{
							OFFSET 8.370511 0.000000 0.000000 
							CHANNELS 3 Zrotation Yrotation Xrotation
							End Site
							{
								OFFSET 4.083176 0.000000 0.000000 
							}
						}
					}
				}
			}
			JOINT rCollar
			{
				OFFSET -3.470700 6.669187 -0.816635 
				CHANNELS 3 Yrotation Zrotation Xrotation
				JOINT rShldr
				{
					OFFSET -3.198488 0.000000 0.000000 
					CHANNELS 3 Zrotation Yrotation Xrotation
					JOINT rForeArm
					{
						OFFSET -10.139888 0.000000 0.000000 
						CHANNELS 3 Yrotation Zrotation Xrotation
						JOINT rHand
						{
							OFFSET -8.370511 0.000000 0.000000 
							CHANNELS 3 Zrotation Yrotation Xrotation
							End Site
							{
								OFFSET -4.083176 0.000000 0.000000 
							}
						}
					}
				}
			}
		}
	}
	JOINT lThigh
	{
		OFFSET 5.308129 -1.633274 1.361059 
		CHANNELS 3 Xrotation Zrotation Yrotation
		JOINT lShin
		{
			OFFSET -2.041588 -20.007561 0.000000 
			CHANNELS 3 Xrotation Zrotation Yrotation
			JOINT lFoot
			{
				OFFSET 0.000000 -19.190928 -1.224953 
				CHANNELS 3 Xrotation Yrotation Zrotation
				End Site
				{
					OFFSET 0.000000 -2.449906 4.627600 
				}
			}
		}
	}
	JOINT rThigh
	{
		OFFSET -5.308129 -1.633274 1.361059 
		CHANNELS 3 Xrotation Zrotation Yrotation
		JOINT rShin
		{
			OFFSET 2.041588 -20.007561 0.000000 
			CHANNELS 3 Xrotation Zrotation Yrotation
			JOINT rFoot
			{
				OFFSET 0.000000 -19.190928 -1.224953 
				CHANNELS 3 Xrotation Yrotation Zrotation
				End Site
				{
					OFFSET 0.000000 -2.449906 4.627600 
				}
			}
		}
	}
}
MOTION
Frames: 6
Frame Time: 0.033333
-55.821060 46.505131 -44.220993 3.243957 -1.891498 76.953094 0.000000 0.000000 0.000000 1.251414 2.723960 0.938785 -8.603516 0.000000 0.000000 21.715416 -1.778592 12.476315 -2.957607 -0.090307 -0.002318 -87.988274 0.220074 -4.238096 -8.098907 -11.931144 3.783879 23.428926 -11.212506 10.586321 2.957607 0.090307 -0.002334 78.384224 -4.778090 -15.413076 12.160891 5.899477 6.231539 -17.978735 21.131620 13.326516 -13.620295 10.993044 9.530520 12.017678 -3.410138 3.796685 5.834618 -2.894921 -11.023830 9.389315 -11.207542 -20.308470 4.020490 6.760485 3.766649 -13.045620 -7.565451 0.558489 
-55.818111 46.506149 -44.219971 3.234186 -1.891516 76.963188 0.000000 0.000000 0.000000 1.261191 2.723950 0.949015 -8.603516 0.000000 0.000000 21.695875 -1.778734 12.486687 -2.957607 -0.090307 -0.002318 -87.986916 0.200642 -4.218517 -8.098659 -11.930547 3.793623 23.428135 -11.202772 10.576557 2.957607 0.090307 -0.002334 78.392311 -4.748407 -15.403228 12.150710 5.890233 6.234204 -17.978735 21.131620 13.326516 -13.620463 11.012765 9.500188 12.016345 -3.419426 3.834853 5.821894 -2.910388 -11.009027 9.382396 -11.200089 -20.306612 4.019638 6.749535 3.756742 -13.050529 -7.580290 0.560833 
-55.819359 46.506828 -44.219292 3.243975 -1.901248 76.962311 0.000000 0.000000 0.000000 1.251404 2.714197 0.958102 -8.603516 0.000000 0.000000 21.705507 -1.759640 12.490811 -2.957607 -0.090307 -0.002318 -87.986237 0.190925 -4.208727 -8.098659 -11.930547 3.793623 23.428135 -11.202772 10.576557 2.957607 0.090307 -0.002334 78.391655 -4.738724 -15.393404 12.140900 5.890569 6.235008 -17.979567 21.141357 13.326517 -13.647081 11.000060 9.470080 12.014091 -3.428367 3.843812 5.833429 -2.913477 -11.009405 9.370023 -11.207770 -20.317621 4.019637 6.749557 3.746997 -13.055099 -7.571674 0.565520 
-55.817547 46.507282 -44.221672 3.253765 -1.910979 76.961433 0.000000 0.000000 0.000000 1.251404 2.714197 0.967867 -8.603516 0.000000 0.000000 21.705441 -1.750129 12.483258 -2.957607 -0.090307 -0.002318 -87.975479 0.171923 -4.208658 -8.098412 -11.929951 3.803368 23.427341 -11.193036 10.578454 2.957607 0.090307 -0.002334 78.390648 -4.719218 -15.393279 12.140683 5.889964 6.244753 -17.990278 21.150356 13.326143 -13.659575 11.003077 9.450604 12.024835 -3.428757 3.862597 5.829328 -2.916733 -11.010925 9.357987 -11.215711 -20.318712 4.019638 6.749533 3.756742 -13.056965 -7.564734 0.557086 
-55.814598 46.507282 -44.224617 3.263555 -1.920711 76.970306 0.000000 0.000000 0.000000 1.251394 2.704434 0.987184 -8.603516 0.000000 0.000000 21.715141 -1.740548 12.475409 -2.957607 -0.090307 -0.002318 -87.973450 0.142774 -4.179287 -8.088013 -11.920659 3.806305 23.427341 -11.193036 10.578454 2.957607 0.090307 -0.002334 78.387154 -4.660909 -15.362823 12.111101 5.881996 6.239277 -18.000990 21.159357 13.335536 -13.671454 11.005417 9.440823 12.022575 -3.437686 3.871554 5.817525 -2.913900 -11.010590 9.353870 -11.229548 -20.319942 4.020500 6.760502 3.756903 -13.065229 -7.573271 0.564073 
-55.817547 46.510117 -44.224617 3.273344 -1.930441 76.979187 0.000000 0.000000 0.000000 1.261160 2.694660 0.977663 -8.603516 0.000000 0.000000 21.715075 -1.731037 12.487389 -2.957607 -0.090307 -0.002318 -87.971931 0.113516 -4.179208 -8.088194 -11.929751 3.814913 23.426548 -11.183302 10.578452 2.957607 0.090307 -0.002334 78.384163 -4.612353 -15.333226 12.101075 5.881726 6.249825 -18.001822 21.169092 13.335537 -13.681478 10.995944 9.421512 12.012440 -3.437528 3.872243 5.822086 -2.922314 -11.012771 9.341479 -11.237199 -20.330940 4.020504 6.760497 3.756902 -13.064503 -7.574643 0.563328 
